<?xml version="1.0" standalone="no"?>
<!DOCTYPE svg PUBLIC "-//W3C//DTD SVG 20010904//EN"
 "http://www.w3.org/TR/2001/REC-SVG-20010904/DTD/svg10.dtd">
<svg version="1.0" xmlns="http://www.w3.org/2000/svg"
 width="1906.000000pt" height="913.000000pt" viewBox="0 0 1906.000000 913.000000"
 preserveAspectRatio="xMidYMid meet">

<g transform="translate(0.000000,913.000000) scale(0.100000,-0.100000)"
fill="#000000" stroke="none">
<path d="M7483 6035 c-38 -16 -53 -42 -53 -88 0 -44 30 -72 95 -88 58 -14 75
-25 75 -49 0 -37 -70 -41 -98 -5 -14 17 -30 25 -51 25 -34 0 -39 -12 -19 -55
16 -36 57 -55 118 -55 84 0 130 35 130 97 0 54 -30 78 -126 103 -47 11 -61 32
-38 55 21 21 50 19 74 -5 12 -12 33 -20 55 -20 40 0 40 1 20 40 -29 55 -111
76 -182 45z"/>
<path d="M7720 5885 l0 -165 40 0 40 0 0 85 c0 74 2 86 20 95 14 8 26 8 40 0
18 -9 20 -21 20 -95 l0 -85 41 0 41 0 -4 100 c-4 111 -16 134 -74 146 -24 4
-37 0 -62 -21 l-32 -27 0 66 0 66 -35 0 -35 0 0 -165z"/>
<path d="M8942 6035 c-21 -9 -38 -27 -47 -49 -26 -62 9 -108 97 -128 50 -11
68 -24 68 -48 0 -20 -19 -30 -60 -30 -28 0 -60 22 -60 41 0 5 -13 9 -30 9 -24
0 -30 -4 -30 -20 0 -53 55 -90 132 -90 72 0 118 38 118 97 0 48 -25 71 -100
93 -61 18 -70 24 -70 44 0 39 70 51 92 16 9 -13 24 -20 46 -20 30 0 33 2 26
23 -10 32 -25 48 -61 64 -41 17 -79 16 -121 -2z"/>
<path d="M9180 5880 l0 -160 35 0 35 0 0 79 c0 83 12 111 49 111 33 0 41 -22
41 -107 l0 -83 35 0 35 0 0 94 c0 79 -3 97 -21 120 -27 34 -82 36 -116 4 l-23
-21 0 61 0 62 -35 0 -35 0 0 -160z"/>
<path d="M8510 5994 c0 -17 -6 -28 -20 -31 -13 -3 -20 -14 -20 -29 0 -17 6
-24 20 -24 18 0 20 -7 20 -78 0 -94 13 -112 79 -112 40 0 43 2 37 23 -3 12 -6
25 -6 30 0 4 -9 7 -20 7 -18 0 -20 7 -20 65 0 63 1 65 25 65 34 0 37 47 3 52
-17 2 -24 11 -26 31 -3 24 -8 27 -38 27 -30 0 -34 -3 -34 -26z"/>
<path d="M8075 5960 c-58 -24 -91 -108 -65 -170 19 -46 56 -70 107 -70 84 0
129 45 127 126 -1 53 -25 91 -69 110 -38 16 -70 17 -100 4z m88 -87 c12 -41 2
-80 -24 -94 -44 -23 -79 56 -48 112 17 33 61 22 72 -18z"/>
<path d="M8381 5944 c-20 -25 -21 -26 -21 -5 0 17 -6 21 -35 21 l-35 0 0 -120
0 -120 35 0 35 0 0 71 c0 86 11 109 50 109 28 0 30 3 30 35 0 28 -4 35 -19 35
-11 0 -29 -12 -40 -26z"/>
<path d="M9495 5935 c-14 -13 -25 -29 -25 -35 0 -16 45 -12 79 7 29 17 31 17
48 0 17 -17 17 -19 -1 -33 -11 -8 -34 -14 -52 -14 -44 0 -84 -34 -84 -71 0
-63 79 -92 127 -47 l23 21 0 -21 c0 -18 6 -22 30 -22 l30 0 0 104 c0 99 -1
104 -25 120 -14 9 -45 16 -75 16 -41 0 -56 -5 -75 -25z m115 -125 c0 -29 -43
-54 -69 -40 -42 22 -14 54 52 59 11 1 17 -6 17 -19z"/>
<path d="M9730 5840 l0 -120 35 0 35 0 0 80 c0 74 2 81 25 96 14 9 32 14 40
10 11 -4 15 2 15 24 0 25 -4 30 -24 30 -13 0 -30 -10 -39 -22 l-16 -23 0 23
c-1 18 -7 22 -36 22 l-35 0 0 -120z"/>
<path d="M9939 5932 c-61 -55 -44 -175 29 -203 46 -18 113 -5 141 28 l25 28
-34 3 c-18 2 -37 -1 -43 -7 -15 -15 -60 -14 -75 1 -7 7 -12 20 -12 30 0 16 10
18 80 18 79 0 80 0 80 26 0 62 -45 103 -112 104 -38 0 -54 -6 -79 -28z m109
-28 c34 -24 26 -34 -28 -34 -27 0 -50 3 -50 8 1 17 25 37 50 41 3 1 16 -6 28
-15z"/>
<path d="M8685 5787 c-26 -20 -13 -67 18 -67 43 0 60 35 31 64 -19 19 -25 20
-49 3z"/>
<path d="M10190 5775 c-18 -22 -1 -50 31 -50 20 0 24 5 24 30 0 23 -5 31 -21
33 -11 2 -27 -4 -34 -13z"/>
<path d="M6849 5021 c-13 -11 -21 -23 -17 -27 5 -4 16 0 26 9 24 22 45 21 65
-1 21 -23 21 -41 0 -64 -9 -10 -13 -21 -9 -26 11 -10 46 36 46 60 0 23 -46 68
-70 68 -10 0 -28 -9 -41 -19z"/>
<path d="M6840 4935 c-18 -19 -30 -38 -27 -42 8 -7 77 55 77 69 0 16 -17 7
-50 -27z"/>
<path d="M6756 4928 c-9 -12 -16 -31 -16 -41 0 -24 44 -67 68 -67 24 0 70 35
60 46 -5 4 -16 0 -26 -9 -24 -22 -45 -21 -65 1 -21 23 -22 46 -2 62 8 7 15 16
15 21 0 16 -19 9 -34 -13z"/>
<path d="M7623 3990 c-3 -11 -10 -20 -15 -20 -7 0 -7 -5 0 -13 6 -7 12 -33 15
-57 l4 -45 1 47 c1 33 7 50 20 57 16 10 16 10 0 11 -10 0 -18 4 -18 10 0 5 8
14 18 19 16 10 16 10 -1 11 -11 0 -21 -9 -24 -20z"/>
<path d="M7680 4000 c0 -5 5 -10 10 -10 6 0 10 5 10 10 0 6 -4 10 -10 10 -5 0
-10 -4 -10 -10z"/>
<path d="M7910 4000 c0 -5 5 -10 10 -10 6 0 10 5 10 10 0 6 -4 10 -10 10 -5 0
-10 -4 -10 -10z"/>
<path d="M8340 4000 c0 -5 5 -10 10 -10 6 0 10 5 10 10 0 6 -4 10 -10 10 -5 0
-10 -4 -10 -10z"/>
<path d="M8976 3938 c-10 -40 -20 -80 -23 -88 -4 -10 -2 -12 4 -5 13 13 54
165 44 165 -4 0 -15 -33 -25 -72z"/>
<path d="M7180 3930 c0 -40 4 -70 10 -70 6 0 10 11 10 25 0 14 3 25 6 25 3 0
15 -11 26 -25 11 -14 24 -25 30 -25 5 0 -2 14 -17 31 l-26 32 23 26 c19 22 18
22 -10 -3 l-32 -30 0 42 c0 23 -4 42 -10 42 -6 0 -10 -30 -10 -70z"/>
<path d="M7301 3935 l-1 -71 29 -2 c16 -1 36 5 45 14 35 35 6 101 -40 90 -18
-5 -24 -1 -27 16 -2 13 -5 -9 -6 -47z m53 19 c22 -8 22 -70 0 -78 -35 -13 -60
44 -32 72 14 14 12 14 32 6z"/>
<path d="M7732 3930 c0 -41 2 -68 5 -60 2 8 7 21 9 29 3 11 12 7 34 -14 34
-33 41 -23 8 12 l-21 23 23 25 c13 14 19 25 13 25 -5 0 -20 -12 -34 -26 l-24
-26 -6 44 c-5 34 -6 28 -7 -32z"/>
<path d="M8469 3975 c-1 -14 -2 -38 -3 -55 -1 -39 -21 -58 -44 -44 -38 24 -20
91 21 78 13 -4 17 -2 13 5 -9 15 -39 14 -54 -1 -16 -16 -15 -73 1 -87 7 -6 28
-9 45 -8 l32 2 0 68 c0 37 -2 67 -5 67 -3 0 -6 -11 -6 -25z"/>
<path d="M7080 3955 c-15 -18 1 -20 18 -3 10 10 16 8 29 -5 18 -17 13 -22 -32
-29 -14 -2 -20 -11 -20 -28 0 -22 4 -25 38 -25 37 -1 37 0 37 40 0 59 -39 87
-70 50z m58 -57 c-7 -21 -36 -34 -49 -21 -6 6 -8 16 -5 22 10 15 59 14 54 -1z"/>
<path d="M7427 3963 c-14 -13 -7 -25 8 -13 17 14 48 5 43 -13 -3 -6 -18 -14
-34 -17 -23 -4 -29 -10 -29 -30 0 -23 4 -25 43 -26 40 -2 42 0 42 26 0 49 -17
80 -43 80 -13 0 -27 -3 -30 -7z m53 -67 c0 -13 -20 -26 -41 -26 -5 0 -9 9 -9
20 0 15 7 20 25 20 15 0 25 -6 25 -14z"/>
<path d="M7532 3910 c1 -50 2 -51 5 -13 3 28 11 47 24 57 20 14 20 14 -5 12
-25 -1 -26 -3 -24 -56z"/>
<path d="M7680 3915 c0 -30 5 -55 10 -55 6 0 10 25 10 55 0 30 -4 55 -10 55
-5 0 -10 -25 -10 -55z"/>
<path d="M7842 3910 c1 -50 2 -51 5 -13 3 28 11 47 24 57 20 14 20 14 -5 12
-25 -1 -26 -3 -24 -56z"/>
<path d="M7910 3915 c0 -30 5 -55 10 -55 6 0 10 25 10 55 0 30 -4 55 -10 55
-5 0 -10 -25 -10 -55z"/>
<path d="M8022 3911 c1 -54 2 -54 5 -11 3 24 9 48 15 51 23 15 38 -4 40 -50
l1 -46 4 42 c7 77 53 84 53 7 0 -24 5 -44 10 -44 13 0 13 70 0 90 -6 10 -28
15 -70 16 l-60 1 2 -56z"/>
<path d="M8185 3949 c4 -13 14 -39 21 -58 13 -30 12 -36 -2 -53 -10 -10 -12
-18 -7 -18 16 0 27 19 51 84 25 67 22 91 -4 27 -18 -45 -29 -46 -39 -1 -4 16
-11 33 -17 36 -7 4 -8 -2 -3 -17z"/>
<path d="M8353 3915 c0 -33 2 -45 4 -27 2 18 2 45 0 60 -2 15 -4 0 -4 -33z"/>
<path d="M7960 3870 c0 -5 5 -10 10 -10 6 0 10 5 10 10 0 6 -4 10 -10 10 -5 0
-10 -4 -10 -10z"/>
<path d="M8290 3870 c0 -5 5 -10 10 -10 6 0 10 5 10 10 0 6 -4 10 -10 10 -5 0
-10 -4 -10 -10z"/>
<path d="M8991 3413 c-88 -31 -161 -136 -161 -233 0 -60 30 -130 75 -175 74
-75 76 -75 605 -75 529 0 531 0 605 75 98 98 98 252 0 350 -74 75 -75 75 -609
74 -400 0 -478 -3 -515 -16z m249 -168 c17 -21 7 -29 -18 -14 -21 13 -52 6
-52 -11 0 -6 15 -17 33 -25 47 -20 61 -39 47 -64 -15 -29 -85 -30 -100 -1 -9
16 -8 20 5 20 8 0 15 -4 15 -10 0 -5 14 -10 30 -10 42 0 38 24 -7 47 -40 19
-52 45 -33 68 16 20 64 19 80 0z m60 -5 c0 -15 7 -20 29 -20 33 0 41 -14 41
-71 0 -53 -18 -50 -22 4 -2 34 -7 42 -23 42 -16 0 -21 -8 -23 -42 -5 -72 -22
-48 -22 32 0 43 4 75 10 75 6 0 10 -9 10 -20z m320 -5 c0 -8 7 -15 15 -15 8 0
15 -4 15 -10 0 -5 -7 -10 -15 -10 -22 0 -20 -59 3 -77 16 -12 15 -13 -8 -11
-21 3 -25 9 -28 43 -2 22 -8 45 -14 52 -7 9 -7 13 1 13 6 0 11 7 11 15 0 8 5
15 10 15 6 0 10 -7 10 -15z m-142 -27 c7 -7 12 -26 12 -43 0 -38 -16 -55 -50
-55 -34 0 -50 17 -50 55 0 38 16 55 50 55 14 0 31 -5 38 -12z m92 2 c0 -5 -7
-10 -15 -10 -11 0 -15 -12 -15 -45 0 -33 -4 -45 -15 -45 -12 0 -15 13 -15 55
0 54 0 55 30 55 17 0 30 -4 30 -10z m178 -2 c7 -7 12 -20 12 -30 0 -14 -8 -18
-35 -18 -26 0 -35 -4 -35 -16 0 -13 7 -15 36 -11 25 4 34 2 31 -6 -2 -7 -19
-13 -37 -15 -38 -4 -60 16 -60 54 0 44 58 72 88 42z m120 -45 c2 -32 -1 -53
-7 -53 -6 0 -11 20 -11 45 0 37 -3 45 -19 45 -21 0 -31 -19 -31 -61 0 -16 -4
-29 -10 -29 -5 0 -10 24 -10 54 l0 54 43 -2 42 -1 3 -52z"/>
<path d="M9414 3186 c-11 -29 0 -51 26 -51 21 0 25 5 25 30 0 24 -5 31 -23 33
-13 2 -24 -3 -28 -12z"/>
<path d="M9690 3190 c0 -5 12 -10 26 -10 14 0 23 4 19 10 -3 6 -15 10 -26 10
-10 0 -19 -4 -19 -10z"/>
</g>
</svg>
